# xmcd CD database file
#
# Track frame offsets:
#	150
#	23625
#	44336
#	65366
#	81012
#	87412
#	105796
#	124735
#	148281
#
# Disc length: 2069 seconds
#
# Revision: 1
# Processed by: cddbd v1.5.2PL0 Copyright (c) Steve Scherf et al.
# Submitted via: CDex 1.51
#
DISCID=6e081309
DTITLE=Spirit-Sound and Vision - S-S and V
DYEAR=2012
DGENRE=Jazz
TTITLE0=PULSE
TTITLE1=EARLY MORNING
TTITLE2=PASSING OF TIME
TTITLE3=IT'S ALLRIGHT
TTITLE4=I TALK TO YOU
TTITLE5=FEATHERDANCE
TTITLE6=LIVE HAS A WAY
TTITLE7=CHANGING TIMES
TTITLE8=I BREATH IN
EXTD=YEAR: 2012
EXTT0=
EXTT1=
EXTT2=
EXTT3=
EXTT4=
EXTT5=
EXTT6=
EXTT7=
EXTT8=
PLAYORDER=
